<svg xmlns="http://www.w3.org/2000/svg" width="10" height="10">
    <path fill="#333" fill-opacity="0" fill-rule="evenodd" d="M.001 0h10v10h-10V0z"/>
    <path fill="#8F8F8F" fill-rule="evenodd" d="M9.439 2.583L5.458 6.212c-.073.086-.18.144-.308.144-.122 0-.228-.056-.3-.139L.866 2.583c-.078-.072-.118-.166-.118-.259 0-.094.04-.188.118-.259.152-.144.404-.144.555 0L5.15 5.461l3.732-3.396c.152-.144.403-.144.557 0 .155.142.155.375 0 .518z"/>
    <path fill="#8F8F8F" fill-rule="evenodd" d="M9.439 2.583L5.458 6.212c-.073.086-.18.144-.308.144-.122 0-.228-.056-.3-.139L.866 2.583c-.078-.072-.118-.166-.118-.259 0-.094.04-.188.118-.259.152-.144.404-.144.555 0L5.15 5.461l3.732-3.396c.152-.144.403-.144.557 0 .155.142.155.375 0 .518z"/>
    <path fill="#070707" fill-rule="evenodd" d="M9.439 2.583L5.458 6.212c-.073.086-.18.144-.308.144-.122 0-.228-.056-.3-.139L.866 2.583c-.078-.072-.118-.166-.118-.259 0-.094.04-.188.118-.259.152-.144.404-.144.555 0L5.15 5.461l3.732-3.396c.152-.144.403-.144.557 0 .155.142.155.375 0 .518z"/>
</svg>
