<svg xmlns="http://www.w3.org/2000/svg" width="182.5" height="18">
    <path fill="#FFF" fill-rule="evenodd" d="M177.223 13.743h-1.946V4.617h1.946c3.154 0 4.992 1.758 4.992 4.564 0 2.804-1.822 4.562-4.992 4.562zm-.065-8.63h-1.33v8.134h1.33c3.019 0 4.482-1.678 4.482-4.066 0-2.39-1.463-4.068-4.482-4.068zm-14.497.235l.388-.389 7.322 7.321-.389.389-7.321-7.321zm-10.218-.731h5.33v.482h-4.779v4.886h4.282v.483h-4.282v2.792h4.966v.483h-5.517V4.617zm-6.762 9.126l-1.907-2.604c-.335.081-.725.121-1.14.121h-1.29v2.483h-.55V4.617h1.84c2.47 0 3.637 1.476 3.637 3.328 0 1.342-.632 2.497-1.96 3.02l2.026 2.778h-.656zm.026-5.798c0-1.503-.818-2.846-3.128-2.846h-1.235v5.678h1.235c2.31 0 3.128-1.329 3.128-2.832zm-13.395 5.798h-.549V5.099h-2.9v-.482h6.349v.482h-2.9v8.644zm-15.009-8.395l.389-.389 7.321 7.321-.39.389-7.32-7.321zm-8.885 8.502c-2.574 0-4.669-1.892-4.669-4.669 0-2.779 2.095-4.672 4.669-4.672 2.58 0 4.672 1.893 4.672 4.672 0 2.777-2.092 4.669-4.672 4.669zm0-8.843c-2.347 0-4.104 1.784-4.104 4.174 0 2.388 1.757 4.173 4.104 4.173 2.351 0 4.108-1.785 4.108-4.173 0-2.39-1.757-4.174-4.108-4.174zm-11.176-.39h.548v9.126h-.548V4.617zm-8.539 9.126h-.548V5.099h-2.9v-.482h6.35v.482h-2.902v8.644zm-13.084.107c-2.577 0-4.672-1.892-4.672-4.669 0-2.779 2.095-4.672 4.672-4.672 2.577 0 4.67 1.893 4.67 4.672 0 2.777-2.093 4.669-4.67 4.669zm0-8.843c-2.349 0-4.107 1.784-4.107 4.174 0 2.388 1.758 4.173 4.107 4.173 2.348 0 4.107-1.785 4.107-4.173 0-2.39-1.759-4.174-4.107-4.174zM64.52 6.496c0-.322.027-.792.027-.792s-.255.443-.497.751l-3.208 4.215h-.147l-3.167-4.215c-.229-.295-.497-.751-.497-.751s.027.47.027.792v7.247h-.522V4.509h.132l4.12 5.423 4.12-5.423h.137v9.234h-.525V6.496z"/>
    <path fill="#070707" fill-rule="evenodd" d="M177.223 13.743h-1.946V4.617h1.946c3.154 0 4.992 1.758 4.992 4.564 0 2.804-1.822 4.562-4.992 4.562zm-.065-8.63h-1.33v8.134h1.33c3.019 0 4.482-1.678 4.482-4.066 0-2.39-1.463-4.068-4.482-4.068zm-14.497.235l.388-.389 7.322 7.321-.389.389-7.321-7.321zm-10.218-.731h5.33v.482h-4.779v4.886h4.282v.483h-4.282v2.792h4.966v.483h-5.517V4.617zm-6.762 9.126l-1.907-2.604c-.335.081-.725.121-1.14.121h-1.29v2.483h-.55V4.617h1.84c2.47 0 3.637 1.476 3.637 3.328 0 1.342-.632 2.497-1.96 3.02l2.026 2.778h-.656zm.026-5.798c0-1.503-.818-2.846-3.128-2.846h-1.235v5.678h1.235c2.31 0 3.128-1.329 3.128-2.832zm-13.395 5.798h-.549V5.099h-2.9v-.482h6.349v.482h-2.9v8.644zm-15.009-8.395l.389-.389 7.321 7.321-.39.389-7.32-7.321zm-8.885 8.502c-2.574 0-4.669-1.892-4.669-4.669 0-2.779 2.095-4.672 4.669-4.672 2.58 0 4.672 1.893 4.672 4.672 0 2.777-2.092 4.669-4.672 4.669zm0-8.843c-2.347 0-4.104 1.784-4.104 4.174 0 2.388 1.757 4.173 4.104 4.173 2.351 0 4.108-1.785 4.108-4.173 0-2.39-1.757-4.174-4.108-4.174zm-11.176-.39h.548v9.126h-.548V4.617zm-8.539 9.126h-.548V5.099h-2.9v-.482h6.35v.482h-2.902v8.644zm-13.084.107c-2.577 0-4.672-1.892-4.672-4.669 0-2.779 2.095-4.672 4.672-4.672 2.577 0 4.67 1.893 4.67 4.672 0 2.777-2.093 4.669-4.67 4.669zm0-8.843c-2.349 0-4.107 1.784-4.107 4.174 0 2.388 1.758 4.173 4.107 4.173 2.348 0 4.107-1.785 4.107-4.173 0-2.39-1.759-4.174-4.107-4.174zM64.52 6.496c0-.322.027-.792.027-.792s-.255.443-.497.751l-3.208 4.215h-.147l-3.167-4.215c-.229-.295-.497-.751-.497-.751s.027.47.027.792v7.247h-.522V4.509h.132l4.12 5.423 4.12-5.423h.137v9.234h-.525V6.496z"/>
    <path fill="#070707" fill-rule="evenodd" d="M177.223 13.743h-1.946V4.617h1.946c3.154 0 4.992 1.758 4.992 4.564 0 2.804-1.822 4.562-4.992 4.562zm-.065-8.63h-1.33v8.134h1.33c3.019 0 4.482-1.678 4.482-4.066 0-2.39-1.463-4.068-4.482-4.068zm-14.497.235l.388-.389 7.322 7.321-.389.389-7.321-7.321zm-10.218-.731h5.33v.482h-4.779v4.886h4.282v.483h-4.282v2.792h4.966v.483h-5.517V4.617zm-6.762 9.126l-1.907-2.604c-.335.081-.725.121-1.14.121h-1.29v2.483h-.55V4.617h1.84c2.47 0 3.637 1.476 3.637 3.328 0 1.342-.632 2.497-1.96 3.02l2.026 2.778h-.656zm.026-5.798c0-1.503-.818-2.846-3.128-2.846h-1.235v5.678h1.235c2.31 0 3.128-1.329 3.128-2.832zm-13.395 5.798h-.549V5.099h-2.9v-.482h6.349v.482h-2.9v8.644zm-15.009-8.395l.389-.389 7.321 7.321-.39.389-7.32-7.321zm-8.885 8.502c-2.574 0-4.669-1.892-4.669-4.669 0-2.779 2.095-4.672 4.669-4.672 2.58 0 4.672 1.893 4.672 4.672 0 2.777-2.092 4.669-4.672 4.669zm0-8.843c-2.347 0-4.104 1.784-4.104 4.174 0 2.388 1.757 4.173 4.104 4.173 2.351 0 4.108-1.785 4.108-4.173 0-2.39-1.757-4.174-4.108-4.174zm-11.176-.39h.548v9.126h-.548V4.617zm-8.539 9.126h-.548V5.099h-2.9v-.482h6.35v.482h-2.902v8.644zm-13.084.107c-2.577 0-4.672-1.892-4.672-4.669 0-2.779 2.095-4.672 4.672-4.672 2.577 0 4.67 1.893 4.67 4.672 0 2.777-2.093 4.669-4.67 4.669zm0-8.843c-2.349 0-4.107 1.784-4.107 4.174 0 2.388 1.758 4.173 4.107 4.173 2.348 0 4.107-1.785 4.107-4.173 0-2.39-1.759-4.174-4.107-4.174zM64.52 6.496c0-.322.027-.792.027-.792s-.255.443-.497.751l-3.208 4.215h-.147l-3.167-4.215c-.229-.295-.497-.751-.497-.751s.027.47.027.792v7.247h-.522V4.509h.132l4.12 5.423 4.12-5.423h.137v9.234h-.525V6.496z"/>
    <path fill="#070707" fill-rule="evenodd" d="M177.223 13.743h-1.946V4.617h1.946c3.154 0 4.992 1.758 4.992 4.564 0 2.804-1.822 4.562-4.992 4.562zm-.065-8.63h-1.33v8.134h1.33c3.019 0 4.482-1.678 4.482-4.066 0-2.39-1.463-4.068-4.482-4.068zm-14.497.235l.388-.389 7.322 7.321-.389.389-7.321-7.321zm-10.218-.731h5.33v.482h-4.779v4.886h4.282v.483h-4.282v2.792h4.966v.483h-5.517V4.617zm-6.762 9.126l-1.907-2.604c-.335.081-.725.121-1.14.121h-1.29v2.483h-.55V4.617h1.84c2.47 0 3.637 1.476 3.637 3.328 0 1.342-.632 2.497-1.96 3.02l2.026 2.778h-.656zm.026-5.798c0-1.503-.818-2.846-3.128-2.846h-1.235v5.678h1.235c2.31 0 3.128-1.329 3.128-2.832zm-13.395 5.798h-.549V5.099h-2.9v-.482h6.349v.482h-2.9v8.644zm-15.009-8.395l.389-.389 7.321 7.321-.39.389-7.32-7.321zm-8.885 8.502c-2.574 0-4.669-1.892-4.669-4.669 0-2.779 2.095-4.672 4.669-4.672 2.58 0 4.672 1.893 4.672 4.672 0 2.777-2.092 4.669-4.672 4.669zm0-8.843c-2.347 0-4.104 1.784-4.104 4.174 0 2.388 1.757 4.173 4.104 4.173 2.351 0 4.108-1.785 4.108-4.173 0-2.39-1.757-4.174-4.108-4.174zm-11.176-.39h.548v9.126h-.548V4.617zm-8.539 9.126h-.548V5.099h-2.9v-.482h6.35v.482h-2.902v8.644zm-13.084.107c-2.577 0-4.672-1.892-4.672-4.669 0-2.779 2.095-4.672 4.672-4.672 2.577 0 4.67 1.893 4.67 4.672 0 2.777-2.093 4.669-4.67 4.669zm0-8.843c-2.349 0-4.107 1.784-4.107 4.174 0 2.388 1.758 4.173 4.107 4.173 2.348 0 4.107-1.785 4.107-4.173 0-2.39-1.759-4.174-4.107-4.174zM64.52 6.496c0-.322.027-.792.027-.792s-.255.443-.497.751l-3.208 4.215h-.147l-3.167-4.215c-.229-.295-.497-.751-.497-.751s.027.47.027.792v7.247h-.522V4.509h.132l4.12 5.423 4.12-5.423h.137v9.234h-.525V6.496z"/>
    <path fill="#070707" fill-rule="evenodd" d="M177.223 13.743h-1.946V4.617h1.946c3.154 0 4.992 1.758 4.992 4.564 0 2.804-1.822 4.562-4.992 4.562zm-.065-8.63h-1.33v8.134h1.33c3.019 0 4.482-1.678 4.482-4.066 0-2.39-1.463-4.068-4.482-4.068zm-14.497.235l.388-.389 7.322 7.321-.389.389-7.321-7.321zm-10.218-.731h5.33v.482h-4.779v4.886h4.282v.483h-4.282v2.792h4.966v.483h-5.517V4.617zm-6.762 9.126l-1.907-2.604c-.335.081-.725.121-1.14.121h-1.29v2.483h-.55V4.617h1.84c2.47 0 3.637 1.476 3.637 3.328 0 1.342-.632 2.497-1.96 3.02l2.026 2.778h-.656zm.026-5.798c0-1.503-.818-2.846-3.128-2.846h-1.235v5.678h1.235c2.31 0 3.128-1.329 3.128-2.832zm-13.395 5.798h-.549V5.099h-2.9v-.482h6.349v.482h-2.9v8.644zm-15.009-8.395l.389-.389 7.321 7.321-.39.389-7.32-7.321zm-8.885 8.502c-2.574 0-4.669-1.892-4.669-4.669 0-2.779 2.095-4.672 4.669-4.672 2.58 0 4.672 1.893 4.672 4.672 0 2.777-2.092 4.669-4.672 4.669zm0-8.843c-2.347 0-4.104 1.784-4.104 4.174 0 2.388 1.757 4.173 4.104 4.173 2.351 0 4.108-1.785 4.108-4.173 0-2.39-1.757-4.174-4.108-4.174zm-11.176-.39h.548v9.126h-.548V4.617zm-8.539 9.126h-.548V5.099h-2.9v-.482h6.35v.482h-2.902v8.644zm-13.084.107c-2.577 0-4.672-1.892-4.672-4.669 0-2.779 2.095-4.672 4.672-4.672 2.577 0 4.67 1.893 4.67 4.672 0 2.777-2.093 4.669-4.67 4.669zm0-8.843c-2.349 0-4.107 1.784-4.107 4.174 0 2.388 1.758 4.173 4.107 4.173 2.348 0 4.107-1.785 4.107-4.173 0-2.39-1.759-4.174-4.107-4.174zM64.52 6.496c0-.322.027-.792.027-.792s-.255.443-.497.751l-3.208 4.215h-.147l-3.167-4.215c-.229-.295-.497-.751-.497-.751s.027.47.027.792v7.247h-.522V4.509h.132l4.12 5.423 4.12-5.423h.137v9.234h-.525V6.496z"/>
    <path fill="#070707" fill-rule="evenodd" stroke="#070707" d="M35.981 14.275V4.258h.604v10.017h-.604zM21.216 5.061l.428-.427 8.034 8.035-.427.426-8.035-8.034zm-10.78 0l.426-.427 8.035 8.035-.426.426-8.035-8.034zm-6.165-.803h.603v10.017h-.603V4.258z"/>
    <path fill="#070707" fill-rule="evenodd" stroke="#070707" d="M35.981 14.275V4.258h.604v10.017h-.604zM21.216 5.061l.428-.427 8.034 8.035-.427.426-8.035-8.034zm-10.78 0l.426-.427 8.035 8.035-.426.426-8.035-8.034zm-6.165-.803h.603v10.017h-.603V4.258z"/>
    <path fill="#070707" fill-rule="evenodd" stroke="#070707" d="M35.981 14.275V4.258h.604v10.017h-.604zM21.216 5.061l.428-.427 8.034 8.035-.427.426-8.035-8.034zm-10.78 0l.426-.427 8.035 8.035-.426.426-8.035-8.034zm-6.165-.803h.603v10.017h-.603V4.258z"/>
</svg>
