<svg xmlns="http://www.w3.org/2000/svg" width="45" height="45">
    <path fill="#FF2E43" fill-opacity="0" fill-rule="evenodd" d="M0 0h45v45H0V0z"/>
    <path fill="#FF2E43" fill-rule="evenodd" d="M22.5 1C34.375 1 44 10.626 44 22.5S34.375 44 22.5 44C10.627 44 1 34.374 1 22.5S10.627 1 22.5 1z"/>
    <path fill="#FFF" fill-rule="evenodd" d="M27.817 22.486c0 .2-.1.371-.246.486l-7.748 7.751c-.127.121-.287.184-.448.184-.161 0-.321-.063-.444-.184-.247-.246-.247-.645 0-.891l7.345-7.346-7.345-7.346c-.247-.246-.247-.645 0-.891.245-.246.645-.246.892 0l7.747 7.75c.147.115.247.286.247.487z"/>
    <path fill="#FFF" fill-rule="evenodd" d="M27.817 22.486c0 .2-.1.371-.246.486l-7.748 7.751c-.127.121-.287.184-.448.184-.161 0-.321-.063-.444-.184-.247-.246-.247-.645 0-.891l7.345-7.346-7.345-7.346c-.247-.246-.247-.645 0-.891.245-.246.645-.246.892 0l7.747 7.75c.147.115.247.286.247.487z"/>
</svg>
