<svg xmlns="http://www.w3.org/2000/svg" width="46" height="45">
    <path fill="#FF2E43" fill-opacity="0" fill-rule="evenodd" d="M.344 0h45v45h-45V0z"/>
    <path fill="#FF2E43" fill-rule="evenodd" d="M22.843 1c11.874 0 21.501 9.626 21.501 21.5S34.717 44 22.843 44 1.344 34.374 1.344 22.5 10.969 1 22.843 1z"/>
    <path fill="#FFF" fill-rule="evenodd" d="M26.138 15.141l-7.347 7.345 7.347 7.346c.247.246.247.646 0 .891-.246.246-.644.246-.889 0l-7.757-7.754c-.142-.116-.238-.285-.238-.483s.097-.367.239-.482l7.756-7.754c.121-.124.281-.185.444-.185.16 0 .323.061.445.185.247.245.247.644 0 .891z"/>
    <path fill="#FFF" fill-rule="evenodd" d="M26.138 15.141l-7.347 7.345 7.347 7.346c.247.246.247.646 0 .891-.246.246-.644.246-.889 0l-7.757-7.754c-.142-.116-.238-.285-.238-.483s.097-.367.239-.482l7.756-7.754c.121-.124.281-.185.444-.185.16 0 .323.061.445.185.247.245.247.644 0 .891z"/>
</svg>
