<svg xmlns="http://www.w3.org/2000/svg" width="16" height="17">
    <path fill="#070707" fill-opacity="0" fill-rule="evenodd" d="M.197.323h15.708v15.705H.197V.323z"/>
    <path fill="#070707" fill-rule="evenodd" d="M1.005 15.998V13.36c0-1.14.844-2.021 1.879-2.465l3.232-1.378c1.035-.443 2.727-.443 3.758 0l3.235 1.378c1.033.444 1.879 1.325 1.879 2.465v2.638H1.005zm6.99-8.287c-2.092 0-3.788-1.724-3.788-3.85 0-2.127 1.696-3.85 3.788-3.85 2.094 0 3.79 1.723 3.79 3.85 0 2.126-1.696 3.85-3.79 3.85z"/>
</svg>
