<svg xmlns="http://www.w3.org/2000/svg" width="44" height="43">
    <path fill="#070707" fill-rule="evenodd" d="M21.999 0c11.874 0 21.499 9.626 21.499 21.5S33.873 43 21.999 43C10.126 43 .5 33.374.5 21.5S10.126 0 21.999 0z" opacity=".702"/>
    <path fill="#FFF" fill-rule="evenodd" d="M27.315 21.486c0 .199-.098.368-.242.484l-7.751 7.753c-.123.122-.285.184-.447.184-.162 0-.321-.062-.445-.184-.244-.247-.244-.645 0-.89l7.347-7.347-7.347-7.346c-.244-.247-.244-.644 0-.89.246-.247.647-.247.892 0l7.754 7.754c.142.115.239.284.239.482z"/>
    <path fill="#FFF" fill-rule="evenodd" d="M27.315 21.486c0 .199-.098.368-.242.484l-7.751 7.753c-.123.122-.285.184-.447.184-.162 0-.321-.062-.445-.184-.244-.247-.244-.645 0-.89l7.347-7.347-7.347-7.346c-.244-.247-.244-.644 0-.89.246-.247.647-.247.892 0l7.754 7.754c.142.115.239.284.239.482z"/>
</svg>
