<svg xmlns="http://www.w3.org/2000/svg" width="17" height="17">
    <path fill="#9B9B9B" fill-rule="evenodd" d="M12.092 17.008H4.901c-2.709 0-4.908-2.197-4.908-4.911V4.902c0-2.712 2.199-4.91 4.908-4.91h7.191C14.804-.008 17 2.19 17 4.902v7.195c0 2.714-2.196 4.911-4.908 4.911zm3.342-12.147c0-1.801-1.46-3.26-3.261-3.26H4.817c-1.799 0-3.259 1.459-3.259 3.26v7.364c0 1.798 1.46 3.261 3.259 3.261h7.356c1.801 0 3.261-1.463 3.261-3.261V4.861zm-2.377.127c-.569 0-1.029-.461-1.029-1.031 0-.567.46-1.027 1.029-1.027.566 0 1.027.46 1.027 1.027 0 .57-.461 1.031-1.027 1.031zm-4.561 7.97c-2.439 0-4.412-1.979-4.412-4.416 0-2.439 1.973-4.415 4.412-4.415 2.436 0 4.414 1.976 4.414 4.415 0 2.437-1.978 4.416-4.414 4.416zm0-7.279c-1.58 0-2.861 1.282-2.861 2.863s1.281 2.863 2.861 2.863c1.58 0 2.86-1.282 2.86-2.863s-1.28-2.863-2.86-2.863z"/>
</svg>
