<svg xmlns="http://www.w3.org/2000/svg" width="12" height="12">
    <path fill="#070707" fill-opacity="0" fill-rule="evenodd" d="M-.001.212h11.789v11.789H-.001V.212z"/>
    <path fill="#8C8C8C" fill-rule="evenodd" d="M11.724 11.868c-.062.084-.16.133-.265.133H.303c-.103 0-.2-.049-.259-.133-.064-.083-.083-.19-.054-.289l.983-3.275.631.189-.858 2.852h10.275l-.859-2.852.628-.189.985 3.275c.028.099.01.206-.051.289zm-2.731-4.49l-3.109 3.106-3.113-3.106c-.322-.343-.59-.741-.786-1.179-.238-.529-.367-1.112-.367-1.731 0-2.35 1.909-4.256 4.266-4.256 2.354 0 4.265 1.906 4.265 4.256 0 .619-.131 1.202-.369 1.731-.198.438-.464.836-.787 1.179zM5.884 2.832c-.909 0-1.642.733-1.642 1.636 0 .905.733 1.638 1.642 1.638.903 0 1.638-.733 1.638-1.638 0-.903-.735-1.636-1.638-1.636z"/>
</svg>
