<svg xmlns="http://www.w3.org/2000/svg" width="12" height="12">
    <path fill="#8C8C8C" fill-opacity="0" fill-rule="evenodd" d="M0 0h12v12H0V0z"/>
    <path fill="#222" fill-rule="evenodd" d="M6.001 0C2.686 0 0 2.687 0 5.999 0 9.314 2.686 12 6.001 12 9.314 12 12 9.314 12 5.999 12 2.687 9.314 0 6.001 0zm4.56 5.999c0 .989-.317 1.902-.852 2.649L3.353 2.291c.747-.534 1.66-.853 2.648-.853 2.514 0 4.56 2.046 4.56 4.561zm-9.125 0c0-.986.321-1.899.855-2.646l6.356 6.355c-.746.536-1.66.855-2.646.855-2.518 0-4.565-2.047-4.565-4.564z"/>
</svg>
