<svg xmlns="http://www.w3.org/2000/svg" width="16" height="16">
    <path fill="#070707" fill-opacity="0" fill-rule="evenodd" d="M0 0h16v16H0V0z"/>
    <path fill="#070707" fill-rule="evenodd" d="M11.69 11.056c-.592 0-1.132.238-1.541.63L6.454 8.919c.106-.284.165-.594.165-.919 0-.324-.059-.634-.165-.918l3.695-2.767c.409.391.949.629 1.541.629 1.276 0 2.31-1.105 2.31-2.469 0-1.364-1.034-2.47-2.31-2.47s-2.31 1.106-2.31 2.47c0 .325.059.634.165.919L5.85 6.16c-.409-.391-.949-.63-1.541-.63-1.276 0-2.31 1.106-2.31 2.47s1.034 2.47 2.31 2.47c.592 0 1.132-.238 1.541-.63l3.695 2.767c-.106.284-.165.594-.165.919 0 1.364 1.034 2.47 2.31 2.47S14 14.89 14 13.526c0-1.365-1.034-2.47-2.31-2.47z"/>
</svg>
