<svg xmlns="http://www.w3.org/2000/svg" width="20" height="20">
    <path fill-opacity="0" fill-rule="evenodd" d="M-.001 0h20v20h-20V0z"/>
    <path fill="#777" fill-rule="evenodd" d="M10 0C4.478 0-.001 4.477-.001 10S4.478 20 10 20c5.523 0 9.999-4.477 9.999-10S15.523 0 10 0zm7.604 10c0 1.646-.531 3.167-1.423 4.413L5.588 3.819C6.835 2.927 8.354 2.396 10 2.396c4.193 0 7.604 3.411 7.604 7.604zm-15.21 0c0-1.646.533-3.168 1.425-4.413l10.593 10.594c-1.245.891-2.765 1.423-4.412 1.423-4.191 0-7.606-3.411-7.606-7.604z"/>
</svg>
