<svg xmlns="http://www.w3.org/2000/svg" width="14" height="14">
    <path fill="#070707" fill-opacity="0" fill-rule="evenodd" d="M0 0h14.001v14H0V0z"/>
    <path fill="#070707" fill-rule="evenodd" d="M9.941 1.997c1.682 0 3.052 1.347 3.052 3.001 0 3.398-3.825 5.631-5.887 6.835l-.112.066-.016-.009-.105-.061C4.821 10.63.996 8.398.996 4.998c0-1.654 1.37-3.001 3.053-3.001.833 0 1.642.347 2.222.951l.724.755.723-.755c.576-.604 1.386-.951 2.223-.951m0-.999c-1.117 0-2.188.465-2.947 1.259C6.233 1.463 5.161.998 4.049.998c-2.237 0-4.052 1.795-4.052 4 0 3.972 4.144 6.392 6.372 7.693l.435.256c.057.035.124.053.19.053.067 0 .132-.018.189-.053.135-.08.283-.165.436-.256 2.228-1.301 6.375-3.721 6.375-7.693 0-2.205-1.821-4-4.053-4z"/>
</svg>
