<svg xmlns="http://www.w3.org/2000/svg" width="18" height="14">
    <path fill="#9B9B9B" fill-rule="evenodd" d="M17.719 2.546c-.344-1.511-.986-2.092-2.169-2.3-.681-.111-3.954-.252-6.553-.252-2.6 0-5.872.141-6.552.252-1.183.208-1.827.792-2.169 2.3-.115.502-.277 3.278-.277 4.334v.234c0 1.058.162 3.832.277 4.338.342 1.506.986 2.085 2.169 2.295.68.111 3.958.25 6.557.25L8.99 14c2.601 0 5.878-.142 6.56-.253 1.183-.21 1.825-.789 2.169-2.295.117-.506.274-3.28.274-4.338V6.88c0-1.056-.157-3.832-.274-4.334zM6.841 9.528V4.465l4.312 2.474-4.312 2.589z"/>
</svg>
